<svg width="179" height="126" viewBox="0 0 179 126" xmlns="http://www.w3.org/2000/svg" xmlns:xlink="http://www.w3.org/1999/xlink">
  <defs>
    <path
      d="M104.697 125.661c41.034 0 74.298-33.264 74.298-74.298s-43.231-7.425-84.265-7.425S0-28.44 0 12.593c0 41.034 63.663 113.068 104.697 113.068z"
      id="bubble-2-a"></path>
  </defs>
  <g fill="none" fill-rule="evenodd">
    <mask id="bubble-2-b" fill="#fff">
      <use xlink:href="#bubble-2-a"></use>
    </mask>
    <use fill="#838DEA" xlink:href="#bubble-2-a"></use>
    <path
      d="M202.697 211.661c41.034 0 74.298-33.264 74.298-74.298s-43.231-7.425-84.265-7.425S98 57.56 98 98.593c0 41.034 63.663 113.068 104.697 113.068z"
      fill="#626CD5" mask="url(#bubble-2-b)"></path>
    <path
      d="M43.697 56.661c41.034 0 74.298-33.264 74.298-74.298s-43.231-7.425-84.265-7.425S-61-97.44-61-56.407C-61-15.373 2.663 56.661 43.697 56.661z"
      fill="#B1B6F1" opacity=".64" mask="url(#bubble-2-b)"></path>
  </g>
</svg>